<?xml version="1.0" encoding="UTF-8"?>
<svg version="1.1" xmlns="http://www.w3.org/2000/svg" width="691" height="567">
<path d="M0 0 C4.66580407 1.7243189 8.98636693 3.99216238 13.375 6.3125 C14.20298096 6.74908936 15.03096191 7.18567871 15.8840332 7.63549805 C23.34978749 11.60109474 30.70194704 15.75698729 38.04663086 19.94140625 C48.93760176 26.13293007 59.96324262 32.0733683 71 38 C69.38468385 41.4196967 67.58748974 43.65199177 64.875 46.3125 C63.78832031 47.38951172 63.78832031 47.38951172 62.6796875 48.48828125 C60.54847817 50.48590166 58.39148037 52.41692993 56.1875 54.33203125 C52.06907635 57.91312254 48.08910431 61.62475124 44.125 65.375 C39.70216372 69.54067091 35.27434545 73.69419518 30.75 77.75 C29.99332031 78.43578125 29.23664063 79.1215625 28.45703125 79.828125 C26.58360321 81.48412816 24.69138407 83.0839975 22.76171875 84.671875 C15.82023664 90.11862863 15.82023664 90.11862863 12.8125 98.0625 C12.874375 99.361875 12.93625 100.66125 13 102 C12.67 102.66 12.34 103.32 12 104 C14.91971883 103.96695791 17.8318228 103.89977677 20.75 103.8125 C21.575 103.80669922 22.4 103.80089844 23.25 103.79492188 C28.42779937 103.65962531 28.42779937 103.65962531 32.43359375 100.53125 C32.95050781 99.6959375 33.46742187 98.860625 34 98 C37.96533466 95.74940465 41.49653782 95.52595135 46 96 C49.92465988 98.1132784 52.63811003 100.22914397 55 104 C55.9148747 108.99472135 55.51986301 112.9961266 53.1875 117.5 C49.767622 121.40843201 47.10728413 122.60713199 42 123 C38.4375 122.4375 38.4375 122.4375 35 121 C34.30648437 119.99839844 33.61296875 118.99679688 32.8984375 117.96484375 C31.25764028 115.90243771 30.39183729 115.10481461 27.81958008 114.41674805 C25.26121475 114.18684243 22.75599233 114.11733858 20.1875 114.125 C19.30384766 114.104375 18.42019531 114.08375 17.50976562 114.0625 C15.3402508 114.01559157 13.1700177 114.00425911 11 114 C11.01546875 115.96259766 11.01546875 115.96259766 11.03125 117.96484375 C11.03125 122.51526126 10.81473415 127.02437374 10.5 131.5625 C10.42845703 132.6462793 10.42845703 132.6462793 10.35546875 133.75195312 C10.23960617 135.50147804 10.12019268 137.25076723 10 139 C13.19840921 140.37850091 16.40996913 141.72327643 19.625 143.0625 C20.52863281 143.45244141 21.43226562 143.84238281 22.36328125 144.24414062 C23.24628906 144.60830078 24.12929687 144.97246094 25.0390625 145.34765625 C26.24876709 145.85824585 26.24876709 145.85824585 27.48291016 146.37915039 C33.39355872 147.83703393 39.29063426 145.00396168 44.83203125 143.04296875 C46.11831673 142.59435234 46.11831673 142.59435234 47.43058777 142.13667297 C50.22665719 141.15948057 53.01987977 140.17450369 55.8125 139.1875 C56.76342529 138.85186035 57.71435059 138.5162207 58.6940918 138.17041016 C62.59791181 136.79205105 66.50152555 135.41314146 70.40335083 134.02914429 C75.81490142 132.11226981 81.23582131 130.22951491 86.67546082 128.39387512 C89.74184924 127.35607609 92.80100952 126.29806624 95.85897827 125.23574829 C97.27741146 124.74831288 98.69900288 124.26996558 100.12368774 123.80111694 C107.54139356 121.6970046 107.54139356 121.6970046 113.45092773 117.18505859 C114.39044468 115.11610796 114.39044468 115.11610796 115 112 C117.50046141 109.1206808 119.30899049 107.21289688 123.171875 106.7265625 C130.99311902 106.41845289 130.99311902 106.41845289 134.5 109.1875 C137.90837051 113.02191682 138.82261505 115.37397128 139.375 120.4375 C138.82551718 125.65758681 136.73805264 128.5516228 132.75 131.875 C129.09159837 133.37161885 125.90362984 133.65060497 122 133 C121.21625 132.443125 120.4325 131.88625 119.625 131.3125 C116.36314583 129.68157292 115.477336 130.15948678 112.0625 131.1875 C110.36919246 131.77519311 108.68187988 132.38036004 107 133 C105.00141691 133.67090245 103.00174137 134.33858036 101 135 C99.56062614 144.45188833 98.12495878 153.90452403 96.8125 163.375 C96.65394531 164.51710937 96.49539062 165.65921875 96.33203125 166.8359375 C96.22246094 167.88007813 96.11289063 168.92421875 96 170 C95.84660156 170.93714844 95.69320312 171.87429687 95.53515625 172.83984375 C96.28524291 177.93917242 99.47117802 181.22841418 102.625 185.1875 C104.01528967 186.9836271 105.40459039 188.78052007 106.79296875 190.578125 C107.4998584 191.48498047 108.20674805 192.39183594 108.93505859 193.32617188 C112.01088006 197.30895702 114.97305201 201.37156707 117.9375 205.4375 C123.54259928 213.08103428 129.26999765 220.62565177 135.0300293 228.15283203 C140.09112045 234.77801539 145.06104701 241.46522777 149.9921875 248.1875 C153.63154088 253.14798852 157.30024114 258.0844215 161 263 C165.49805069 268.98601345 169.97941117 274.98415295 174.4375 281 C175.01693359 281.77730469 175.59636719 282.55460937 176.19335938 283.35546875 C176.74701172 284.10441406 177.30066406 284.85335938 177.87109375 285.625 C178.35505615 286.27726562 178.83901855 286.92953125 179.33764648 287.6015625 C184.20009054 294.61707879 187.69445772 301.59080328 190.828125 309.54296875 C191.26259949 310.62959305 191.69707397 311.71621735 192.14471436 312.83576965 C193.05590788 315.11942664 193.96333944 317.40458792 194.8671875 319.69116211 C196.25116478 323.19044507 197.64805464 326.68436201 199.046875 330.17773438 C199.93305519 332.40334197 200.81849765 334.62924348 201.703125 336.85546875 C202.11975403 337.89825485 202.53638306 338.94104095 202.96563721 340.01542664 C203.34983826 340.99026505 203.73403931 341.96510345 204.12988281 342.96948242 C204.46787903 343.82249435 204.80587524 344.67550629 205.15411377 345.55436707 C206 348 206 348 207 353 C220.53 353 234.06 353 248 353 C247.9690625 345.575 247.9690625 345.575 247.9375 338 C247.949021 336.45441406 247.96054199 334.90882813 247.97241211 333.31640625 C247.92092692 324.73775196 247.92092692 324.73775196 243.84375 317.3984375 C242.59134651 316.23381258 241.31028015 315.09910493 240 314 C238.88978037 312.89536417 237.78656121 311.78363544 236.69140625 310.6640625 C235.10903835 309.11904241 233.51868271 307.58290615 231.92382812 306.05078125 C230.58019807 304.7360282 229.28530024 303.37183112 228 302 C228 301.34 228 300.68 228 300 C238.11584118 293.05397282 247.20842963 288.51312747 259.73339844 290.42871094 C266.47597607 292.12815424 272.33139214 296.10765891 278 300 C276.66107286 302.9896871 275.19457518 305.03653522 272.84765625 307.3125 C272.23599609 307.91320312 271.62433594 308.51390625 270.99414062 309.1328125 C270.35669922 309.74898438 269.71925781 310.36515625 269.0625 311 C267.80106601 312.22678626 266.54187765 313.4558866 265.28515625 314.6875 C264.72707275 315.22761719 264.16898926 315.76773437 263.59399414 316.32421875 C262.80496704 317.15373047 262.80496704 317.15373047 262 318 C261.44779785 318.58040039 260.8955957 319.16080078 260.32666016 319.75878906 C258.4509198 322.92759592 258.56337316 325.50738959 258.48828125 329.171875 C258.45516846 330.4206543 258.42205566 331.66943359 258.38793945 332.95605469 C258.35059692 335.32905762 258.35059692 335.32905762 258.3125 337.75 C258.209375 342.7825 258.10625 347.815 258 353 C271.53 353 285.06 353 299 353 C299.33 351.35 299.66 349.7 300 348 C300.74879709 345.91558565 301.54410591 343.84761504 302.37109375 341.79296875 C302.85739258 340.57859131 303.34369141 339.36421387 303.84472656 338.11303711 C304.92326298 335.44993403 306.00609523 332.78858072 307.08886719 330.12719727 C307.36443451 329.44975967 307.64000183 328.77232208 307.92391968 328.07435608 C308.48361339 326.69901576 309.04402094 325.32396573 309.60513306 323.94920349 C311.29322369 319.79775443 312.90235737 315.62566125 314.45703125 311.421875 C319.69177557 297.56238286 326.67988067 286.86527352 336.04541016 275.43457031 C339.01833748 271.73159364 341.75799021 267.87528802 344.5 264 C349.84667873 256.51448327 355.39018314 249.19322549 360.98388672 241.89111328 C367.18705788 233.78339448 373.24962175 225.57781241 379.28222656 217.34277344 C382.1807081 213.38969942 385.09092372 209.44528008 388 205.5 C391.65531972 200.54124499 395.30861812 195.58102703 398.95703125 190.6171875 C399.60220703 189.73998047 400.24738281 188.86277344 400.91210938 187.95898438 C402.15759415 186.26548349 403.40241032 184.57149062 404.64648438 182.87695312 C405.20271484 182.12091797 405.75894531 181.36488281 406.33203125 180.5859375 C406.82421143 179.9161084 407.3163916 179.2462793 407.82348633 178.55615234 C409 177 409 177 410 176 C409.79746038 166.88469945 408.21889249 157.76049843 406.9375 148.75 C406.74904385 147.40759488 406.56089115 146.06514713 406.37304688 144.72265625 C405.91833002 141.48134122 405.4605943 138.24048413 405 135 C402.75596298 134.10598525 400.50709867 133.23484711 398.25 132.375 C397.61578125 132.11976563 396.9815625 131.86453125 396.328125 131.6015625 C392.57830066 130.14998105 392.57830066 130.14998105 388.734375 130.7890625 C387.87585938 131.38847656 387.87585938 131.38847656 387 132 C383.27148658 133.24283781 379.87253239 133.5280726 376 133 C371.63649778 130.77708378 368.90455662 128.54977416 367 124 C366.42942163 118.76969824 367.15051894 115.42160854 370 111 C372.29186176 108.36088646 373.8862517 107.16330082 377.37109375 106.65234375 C382.30950312 106.48357196 386.14330427 106.61078254 390 110 C391.69837196 112.36558951 392.87568328 114.13427581 393.29174805 117.0316925 C393.82678561 119.18106413 393.82678561 119.18106413 395.96411133 120.14176941 C396.8280249 120.44327408 397.69193848 120.74477875 398.58203125 121.05541992 C400.0525293 121.58198433 400.0525293 121.58198433 401.55273438 122.1191864 C402.62845703 122.48590958 403.70417969 122.85263275 404.8125 123.23046875 C405.92818359 123.62518875 407.04386719 124.01990875 408.19335938 124.42658997 C411.79043757 125.69543668 415.39482975 126.94185418 419 128.1875 C421.33776552 129.0069647 423.67501158 129.8279129 426.01171875 130.65039062 C429.50750402 131.88049205 433.00429694 133.10695798 436.50585938 134.32052612 C442.39269985 136.36252391 448.25263981 138.45362261 454.08203125 140.65478516 C455.21447266 141.07810623 456.34691406 141.50142731 457.51367188 141.93757629 C459.65404895 142.74096022 461.78983287 143.55673125 463.91992188 144.38700867 C470.82773542 146.96516852 475.90458934 147.57899262 482.859375 144.58984375 C483.50003906 144.32236328 484.14070312 144.05488281 484.80078125 143.77929688 C485.44402344 143.50150391 486.08726562 143.22371094 486.75 142.9375 C493.61985126 140 493.61985126 140 497 140 C496.855625 138.87722656 496.71125 137.75445312 496.5625 136.59765625 C496.37471327 135.08597309 496.18722957 133.57425227 496 132.0625 C495.90460937 131.32708984 495.80921875 130.59167969 495.7109375 129.83398438 C495.06104802 124.51881685 494.91491803 119.35484619 495 114 C491.93366836 114.00601832 488.87742059 114.05346283 485.8125 114.125 C484.51602539 114.12113281 484.51602539 114.12113281 483.19335938 114.1171875 C478.44414027 114.16033237 478.44414027 114.16033237 474.40942383 116.34082031 C473.2183358 117.8524019 472.10551045 119.42474884 471 121 C467.312507 122.98939892 463.89289092 123.15756899 459.8125 122.4375 C455.94489116 120.46072215 452.96255803 117.92511606 451 114 C450.48906125 109.94168646 450.08321472 105.80423343 451.9765625 102.078125 C454.21944856 99.29859749 456.5605427 97.01160509 460 96 C465.23367486 95.51540048 468.55700877 96.17264194 473 99 C473.36222656 99.680625 473.72445312 100.36125 474.09765625 101.0625 C477.20327902 104.22551621 480.92911555 103.67754489 485.1875 103.75 C486.4549707 103.79447266 486.4549707 103.79447266 487.74804688 103.83984375 C489.83151822 103.9104699 491.91576506 103.95750795 494 104 C493.67 103.34 493.34 102.68 493 102 C492.94884049 100.60448235 492.90863976 99.20854985 492.875 97.8125 C492.27243102 92.01856752 489.32777848 89.5824859 485 86 C483.83185104 84.98086321 482.66524398 83.95995697 481.5 82.9375 C480.83484375 82.36386719 480.1696875 81.79023438 479.484375 81.19921875 C476.18250762 78.27633929 472.96782936 75.26482319 469.75 72.25 C463.20720431 66.12114124 456.61956349 60.04586799 450 54 C447.81166977 52.00090599 445.62435309 50.00070964 443.4375 48 C442.46683594 47.113125 441.49617188 46.22625 440.49609375 45.3125 C439.67238281 44.549375 438.84867187 43.78625 438 43 C437.39285156 42.443125 436.78570312 41.88625 436.16015625 41.3125 C435 40 435 40 435 38 C435.60658447 37.67427002 436.21316895 37.34854004 436.83813477 37.01293945 C448.16038196 30.92549284 459.44933033 24.79073871 470.625 18.4375 C478.49289552 13.96939654 486.38169478 9.54313413 494.3125 5.1875 C495.72813232 4.40427368 495.72813232 4.40427368 497.17236328 3.60522461 C498.03974121 3.13093018 498.90711914 2.65663574 499.80078125 2.16796875 C500.56559814 1.74797607 501.33041504 1.3279834 502.1184082 0.89526367 C504 0 504 0 506 0 C505.33815314 5.14842378 503.10155557 9.55254215 500.95703125 14.21875 C500.34791145 15.56024109 500.34791145 15.56024109 499.72648621 16.92883301 C498.42672724 19.78815034 497.11969716 22.64407673 495.8125 25.5 C494.9520008 27.39040969 494.09197001 29.28103268 493.23242188 31.171875 C488.8534708 40.79591558 484.44560536 50.40655638 480 60 C476.04 57.03 476.04 57.03 472 54 C472.64009017 50.03526237 473.8698277 46.7055586 475.50390625 43.04296875 C476.24350586 41.37524414 476.24350586 41.37524414 476.99804688 39.67382812 C477.51431641 38.52333984 478.03058594 37.37285156 478.5625 36.1875 C479.08263672 35.01767578 479.60277344 33.84785156 480.13867188 32.64257812 C481.42127112 29.75967157 482.70852283 26.87893769 484 24 C480.38518865 25.91392614 476.77411655 27.83471345 473.16625977 29.76171875 C471.9403621 30.41527251 470.71348738 31.06699719 469.4855957 31.71679688 C467.71304925 32.65524615 465.944375 33.60099756 464.17578125 34.546875 C462.58117065 35.39523926 462.58117065 35.39523926 460.9543457 36.26074219 C458.06514679 37.96164732 455.55885791 39.84038184 453 42 C453.54785156 42.48726562 454.09570312 42.97453125 454.66015625 43.4765625 C460.62074868 48.80717361 466.48365754 54.23302749 472.32177734 59.69702148 C476.2592119 63.38025217 480.21027403 67.04727108 484.1875 70.6875 C485.13625 71.55632812 486.085 72.42515625 487.0625 73.3203125 C489.16277786 75.23625746 491.26683491 77.14747193 493.375 79.0546875 C493.92905518 79.55782471 494.48311035 80.06096191 495.05395508 80.5793457 C496.1192232 81.54654102 497.18667122 82.51134246 498.2565918 83.47338867 C502.06027808 86.93204604 503.09098999 88.62586487 503.33447266 93.70239258 C503.62514613 99.21563175 503.99303322 104.71957243 504.38769531 110.22631836 C504.54449947 112.5959647 504.67807474 114.96727527 504.78710938 117.33959961 C505.18468404 133.25160866 505.18468404 133.25160866 513.31491089 146.20451355 C515.84483061 148.23981724 518.43457362 150.08516391 521.17881775 151.8196106 C523.91025939 153.58997969 526.32501899 155.65290035 528.8125 157.75 C529.68519531 158.45640625 530.55789063 159.1628125 531.45703125 159.890625 C534.89147379 162.73947135 538.17135796 165.74478194 541.46875 168.75 C544.0884481 171.07862053 546.7751531 173.29562947 549.5 175.5 C553.0947765 178.4081338 556.58260628 181.38541332 560 184.5 C566.39431663 190.32230109 573.04549596 195.85690166 580 201 C579.65572918 203.81050176 579.11040227 204.89181911 577.05859375 206.90234375 C576.19363281 207.57394531 575.32867188 208.24554688 574.4375 208.9375 C573.44621094 209.71996094 572.45492187 210.50242187 571.43359375 211.30859375 C570.88558105 211.73640137 570.33756836 212.16420898 569.77294922 212.60498047 C567.17835568 214.64649899 564.62122116 216.73297302 562.06323242 218.82006836 C560.68580605 219.94160083 559.30443044 221.05830006 557.91918945 222.17016602 C554.82536345 224.65811009 551.78429578 227.15596542 548.8828125 229.8671875 C547.97273437 230.69476563 547.06265625 231.52234375 546.125 232.375 C545.36445312 233.10460937 544.60390625 233.83421875 543.8203125 234.5859375 C536.71967428 238.14609129 525.60755107 234.16548025 518.11892128 232.85711479 C516.00390433 232.48791077 513.88809483 232.12359306 511.77201843 231.76051331 C505.76342244 230.72870633 499.75628597 229.68853625 493.74975586 228.64477539 C490.05620153 228.00328599 486.36170067 227.36749919 482.66658592 226.73506355 C481.26806677 226.49448428 479.86992529 226.251698 478.47219276 226.00658989 C476.51664722 225.66371136 474.55973459 225.3286581 472.6027832 224.99389648 C471.49377151 224.80149887 470.38475983 224.60910126 469.24214172 224.41087341 C463.16140048 223.64026709 458.94445094 223.47066523 453.72265625 226.84375 C452.79775391 227.43027344 451.87285156 228.01679688 450.91992188 228.62109375 C449.97697266 229.24113281 449.03402344 229.86117187 448.0625 230.5 C447.09248047 231.12003906 446.12246094 231.74007812 445.12304688 232.37890625 C442.73928575 233.90545278 440.36583806 235.44587872 438 237 C433.7511229 233.03075649 430.48811336 228.71186816 427.1875 223.9375 C426.66704102 223.19250244 426.14658203 222.44750488 425.61035156 221.67993164 C421.31681404 215.5131033 417.11777619 209.28566425 413 203 C413.95043374 201.66102417 414.91059147 200.32894573 415.875 199 C416.40867187 198.2575 416.94234375 197.515 417.4921875 196.75 C417.98976563 196.1725 418.48734375 195.595 419 195 C419.66 195 420.32 195 421 195 C422.63232422 197.04785156 422.63232422 197.04785156 424.5546875 199.890625 C425.60076172 201.42009766 425.60076172 201.42009766 426.66796875 202.98046875 C427.76044922 204.59888672 427.76044922 204.59888672 428.875 206.25 C430.30603664 208.36199505 431.74080202 210.47146947 433.1796875 212.578125 C433.81632324 213.52075195 434.45295898 214.46337891 435.10888672 215.43457031 C436.90574119 217.87213122 438.80051272 219.92551824 441 222 C442.01578125 221.26652344 443.0315625 220.53304687 444.078125 219.77734375 C445.46763678 218.82909585 446.85832667 217.8825727 448.25 216.9375 C448.91257812 216.45216797 449.57515625 215.96683594 450.2578125 215.46679688 C459.68236022 209.19858353 471.48081312 213.28068085 481.93790817 215.17345047 C484.01462439 215.54876506 486.09259683 215.91626938 488.17105103 216.28182983 C494.07023987 217.32060701 499.96717551 218.37181412 505.86279297 219.43066406 C509.49319061 220.08213313 513.12519949 220.72388828 516.75835037 221.35981369 C518.13286512 221.60245172 519.50672414 221.84883703 520.87986374 222.09914017 C522.79637194 222.44836791 524.71529399 222.78426851 526.63427734 223.11962891 C527.72171234 223.31424713 528.80914734 223.50886536 529.92953491 223.7093811 C537.25780664 224.40300053 542.10176108 221.74982353 547.61914062 217.27197266 C551.65377799 213.45526287 552.96511216 210.03274236 553.46191406 204.52978516 C553.54605934 198.6644281 553.35640689 193.87677389 549.8515625 189.02734375 C547.02540551 186.73159731 544.11046623 184.88764935 541 183 C539.29881932 181.53925975 537.63074182 180.03897982 536 178.5 C532.58260628 175.38541332 529.0947765 172.4081338 525.5 169.5 C521.82665742 166.52708291 518.25468977 163.4826512 514.75 160.3125 C513.9353125 159.57902344 513.120625 158.84554687 512.28125 158.08984375 C510.84280157 156.77208706 509.42304393 155.43334672 508.03125 154.06640625 C507.4434375 153.50824219 506.855625 152.95007813 506.25 152.375 C505.51523438 151.64410156 505.51523438 151.64410156 504.765625 150.8984375 C501.88636259 149.43332609 500.0994779 150.17819557 497 151 C492.75168956 152.62372883 488.58779554 154.44784578 484.43164062 156.29296875 C483.57892578 156.65261719 482.72621094 157.01226562 481.84765625 157.3828125 C481.08461182 157.71684082 480.32156738 158.05086914 479.53540039 158.39501953 C472.31970206 160.11678173 464.92334189 156.40377285 458.23046875 154 C457.11311844 153.60425781 455.99576813 153.20851562 454.84455872 152.80078125 C451.28999828 151.53997025 447.73880256 150.26995445 444.1875 149 C441.7794999 148.14526114 439.37129885 147.29108819 436.96289062 146.4375 C432.57330001 144.87825279 428.18378671 143.31882031 423.79760742 141.75 C422.91715256 141.43546875 422.03669769 141.1209375 421.12956238 140.796875 C419 140 419 140 417 139 C417.33717041 140.67618408 417.33717041 140.67618408 417.68115234 142.38623047 C424.28703196 176.32894103 424.28703196 176.32894103 419.49609375 185.27734375 C416.72030644 189.11633044 413.43865156 192.29825496 409.83349609 195.35693359 C407.08419607 197.82068714 405.20669728 200.58018595 403.125 203.625 C402.50882812 204.48351562 401.89265625 205.34203125 401.2578125 206.2265625 C400.84273438 206.81179688 400.42765625 207.39703125 400 208 C403.64260861 214.87181172 407.76824648 221.31253045 412.125 227.75 C413.54275729 229.85994466 414.95937136 231.97065782 416.375 234.08203125 C416.92898972 234.90774376 416.92898972 234.90774376 417.49417114 235.75013733 C422.90552669 243.82742272 428.20920891 251.97577794 433.52783203 260.11425781 C433.91115692 260.7002475 434.29448181 261.28623718 434.68942261 261.88998413 C435.78815661 263.57187113 436.88290899 265.25635711 437.97753906 266.94091797 C439.26120179 268.88252757 440.57278831 270.80618426 441.92089844 272.70361328 C442.48067383 273.49364746 443.04044922 274.28368164 443.6171875 275.09765625 C444.10558105 275.76418213 444.59397461 276.43070801 445.09716797 277.11743164 C446 279 446 279 445.73378849 280.91733074 C444.89511562 283.29768724 443.94265277 284.42979445 442.16221619 286.20527649 C441.55816956 286.81489227 440.95412292 287.42450806 440.33177185 288.05259705 C439.66533157 288.70982254 438.9988913 289.36704803 438.31225586 290.04418945 C437.61294952 290.74554016 436.91364319 291.44689087 436.19314575 292.16949463 C433.87423823 294.49141522 431.54474692 296.80239835 429.21484375 299.11328125 C427.59817717 300.72688925 425.98210154 302.34108951 424.36659241 303.95585632 C420.97394839 307.34389292 417.57644915 310.72695584 414.17504883 314.10620117 C409.8296505 318.42343001 405.49286841 322.74918135 401.15929317 327.07827473 C397.01428875 331.21810085 392.8646154 335.35323486 388.71484375 339.48828125 C387.92935591 340.27188837 387.14386806 341.05549549 386.33457756 341.86284828 C384.09011987 344.10037199 381.84233045 346.33449324 379.59350586 348.56762695 C378.61509987 349.54435616 378.61509987 349.54435616 377.6169281 350.54081726 C374.48693523 353.64215812 371.30919621 356.63762009 367.97584534 359.52018738 C364.07798371 362.89148786 360.4205985 366.45118286 356.79296875 370.109375 C356.12190094 370.78190308 355.45083313 371.45443115 354.75942993 372.14733887 C353.3168177 373.59372784 351.87536071 375.04126981 350.43496704 376.48986816 C348.14940713 378.78830752 345.86063672 381.08350709 343.57104492 383.37792969 C338.71120539 388.24914177 333.85531035 393.12427405 329 398 C323.36926584 403.65441026 317.73688564 409.30716035 312.10025024 414.95568848 C309.8560172 417.20635799 307.61484077 419.46004031 305.3737793 421.71386719 C303.98501306 423.1062692 302.5961044 424.49852918 301.20703125 425.890625 C300.59381012 426.50901245 299.98058899 427.1273999 299.3487854 427.76452637 C295.61964117 431.49411736 291.75772231 435.01008469 287.7678833 438.45894051 C285.82612423 440.15156708 283.97198543 441.90715979 282.15429688 443.73217773 C281.19420715 444.69238075 281.19420715 444.69238075 280.21472168 445.67198181 C279.2267157 446.66772972 279.2267157 446.66772972 278.21875 447.68359375 C277.51979614 448.38396255 276.82084229 449.08433136 276.10070801 449.80592346 C273.89808461 452.01408458 271.69898919 454.22572037 269.5 456.4375 C267.99502492 457.94749814 266.48981865 459.4572659 264.984375 460.96679688 C261.32024171 464.64187641 257.6592652 468.32007356 254 472 C250.78224053 470.58480907 248.64936999 468.88918018 246.18457031 466.39575195 C245.4499054 465.65770828 244.71524048 464.91966461 243.95831299 464.15925598 C243.17285095 463.36033432 242.38738892 462.56141266 241.578125 461.73828125 C240.75930847 460.91426315 239.94049194 460.09024506 239.09686279 459.24125671 C236.47645463 456.60303526 233.86280312 453.95825176 231.25 451.3125 C228.65066902 448.68542931 226.04985812 446.05986951 223.44598389 443.43730164 C221.82697488 441.80617276 220.21064483 440.17237885 218.59747314 438.53547668 C217.85019958 437.78167221 217.10292603 437.02786774 216.33300781 436.2512207 C215.3651535 435.27098686 215.3651535 435.27098686 214.37774658 434.27095032 C212.3573782 432.34132659 210.29810052 430.51042351 208.18536377 428.68437195 C204.19057632 425.21047297 200.42789853 421.55648047 196.70117188 417.79882812 C196.02035049 417.11654648 195.33952911 416.43426483 194.63807678 415.73130798 C193.17418396 414.2636378 191.71144641 412.79481458 190.24977112 411.32493591 C187.93060487 408.99289308 185.60823041 406.66408732 183.28503418 404.33605957 C177.51840232 398.55612674 171.75724766 392.77074443 165.99591064 386.98553467 C161.1170549 382.08688544 156.23611392 377.19033173 151.35243225 372.29649353 C149.07496126 370.01258482 146.80054594 367.72566354 144.52624512 365.43859863 C143.11725586 364.02597368 141.70812422 362.61349071 140.29882812 361.20117188 C139.67625626 360.57343369 139.05368439 359.9456955 138.4122467 359.29893494 C134.72055317 355.60680536 130.89966103 352.13287639 126.95043373 348.71871758 C123.89254841 346.02411629 121.00093284 343.17258661 118.10913086 340.30200195 C117.47237427 339.67342285 116.83561768 339.04484375 116.17956543 338.3972168 C114.10503265 336.34720172 112.03440111 334.29331851 109.96484375 332.23828125 C109.25381563 331.53257681 108.54278751 330.82687237 107.81021309 330.09978294 C104.06047096 326.37660224 100.31429548 322.64987077 96.57055664 318.9206543 C93.47262409 315.83614759 90.36754874 312.75910699 87.25610352 309.68823242 C83.48817188 305.96940956 79.73246764 302.23865583 75.98544502 298.49876976 C74.5570567 297.07711379 73.12440164 295.65973172 71.68748283 294.24669838 C69.68859679 292.27920869 67.70582737 290.29677126 65.72631836 288.30981445 C65.12749344 287.72739487 64.52866852 287.14497528 63.91169739 286.54490662 C62.29356384 284.90156555 62.29356384 284.90156555 60 282 C60.43579003 278.94559024 61.58467036 276.77617662 63.23046875 274.19140625 C63.69590088 273.45615723 64.16133301 272.7209082 64.64086914 271.96337891 C65.15125732 271.17108887 65.66164551 270.37879883 66.1875 269.5625 C66.72431396 268.72122559 67.26112793 267.87995117 67.81420898 267.01318359 C72.21382608 260.14960334 76.72231315 253.36020182 81.26293945 246.58935547 C86.69008943 238.49217573 92.03771202 230.34404755 97.375 222.1875 C97.80571808 221.52937317 98.23643616 220.87124634 98.6802063 220.19317627 C101.12129192 216.46287168 103.56117616 212.73178386 106 209 C102.96452035 204.08740259 99.78713 199.63881174 95.80859375 195.44140625 C83.47905092 181.98936417 83.47905092 181.98936417 83.55859375 172.34375 C84.05450167 166.7639835 85.09432482 161.33084244 86.35302734 155.87646484 C87.21210184 152.0569872 87.70446157 148.25894312 88.1875 144.375 C88.45438601 142.58274109 88.72324593 140.79076166 89 139 C88.04609375 139.35449219 87.0921875 139.70898438 86.109375 140.07421875 C82.93947835 141.24997052 79.76524087 142.41341284 76.58984375 143.57421875 C72.17737031 145.18984551 67.7776015 146.83638902 63.38241577 148.49824524 C60.17297528 149.70764827 56.95797143 150.90181339 53.74206543 152.09390259 C52.12866399 152.69561467 50.51753791 153.3034651 48.90881348 153.91757202 C46.60772777 154.79477706 44.29931381 155.64940582 41.98828125 156.5 C41.30230362 156.76734451 40.61632599 157.03468903 39.90956116 157.31013489 C33.21371914 159.72656519 27.5477461 158.98162821 20.984375 156.1171875 C20.12585938 155.75496094 19.26734375 155.39273438 18.3828125 155.01953125 C16.61160601 154.24955573 14.84077896 153.47870686 13.0703125 152.70703125 C12.21695313 152.34738281 11.36359375 151.98773438 10.484375 151.6171875 C9.71834961 151.28315918 8.95232422 150.94913086 8.16308594 150.60498047 C5.64149755 149.89973261 4.42331755 150.06179874 2 151 C-0.5081737 152.99722705 -0.5081737 152.99722705 -3.0625 155.5 C-6.79116242 159.00218723 -10.57503834 162.35100744 -14.5625 165.5625 C-18.13828469 168.44848793 -21.60401318 171.40444804 -25 174.5 C-37.50500543 185.88813094 -37.50500543 185.88813094 -43.75390625 189.6640625 C-47.74802688 193.81794795 -47.10434672 198.76851454 -47.14501953 204.27075195 C-46.87212867 209.94430743 -45.81916723 213.36815637 -41.63232422 217.28295898 C-35.95490332 221.82063646 -31.15227536 224.4170304 -23.66137695 223.66468811 C-22.44925537 223.44928879 -21.23713379 223.23388947 -19.98828125 223.01196289 C-19.31429291 222.89506607 -18.64030457 222.77816925 -17.94589233 222.6577301 C-15.73306155 222.27176722 -13.52293161 221.87210884 -11.3125 221.47265625 C-9.76620878 221.20117467 -8.21973722 220.93071838 -6.6730957 220.66123962 C-2.61002094 219.9511704 1.45102638 219.23015899 5.51159668 218.50592041 C12.00967667 217.34799666 18.51004418 216.20319553 25.0116272 215.0651226 C27.27580249 214.66661521 29.53867906 214.26128136 31.80151367 213.85523987 C33.19706116 213.60906725 34.59264831 213.36311934 35.98828125 213.11743164 C37.20040283 212.90123672 38.41252441 212.68504181 39.66137695 212.46229553 C44.77465928 211.75426484 48.6759158 211.29568249 53.0859375 214.1875 C53.78847656 214.63867188 54.49101563 215.08984375 55.21484375 215.5546875 C55.92769531 216.03164063 56.64054687 216.50859375 57.375 217 C58.11105469 217.47695313 58.84710938 217.95390625 59.60546875 218.4453125 C61.41156489 219.6181022 63.20689794 220.80743806 65 222 C69.74289352 217.67533536 73.13024031 212.69276081 76.6875 207.375 C77.55858398 206.08722656 77.55858398 206.08722656 78.44726562 204.7734375 C80.64348773 201.52353659 82.82424483 198.26363275 85 195 C89.22306 196.50823571 90.6569133 199.32785152 93 203 C88.01203313 210.62136552 82.87605627 218.1392101 77.6875 225.625 C77.07696777 226.51413086 76.46643555 227.40326172 75.83740234 228.31933594 C74.96462646 229.57278809 74.96462646 229.57278809 74.07421875 230.8515625 C73.55432373 231.60260254 73.03442871 232.35364258 72.4987793 233.12744141 C71 235 71 235 68 237 C67.43192627 236.60095459 66.86385254 236.20190918 66.27856445 235.79077148 C63.64587781 233.97080343 60.98079181 232.20481016 58.3125 230.4375 C57.41982422 229.80908203 56.52714844 229.18066406 55.60742188 228.53320312 C44.14419679 221.06782878 31.66389372 225.22330622 18.90625 227.50390625 C17.50202739 227.74975724 16.09768718 227.99493735 14.6932373 228.23948669 C11.03819261 228.87717054 7.38433634 229.52138532 3.73083496 230.16784668 C-2.14233953 231.20686026 -8.01655783 232.23977659 -13.89216614 233.26493645 C-15.93183505 233.62243604 -17.97050394 233.98527519 -20.00915527 234.348526 C-21.86764099 234.67402687 -21.86764099 234.67402687 -23.76367188 235.00610352 C-24.85031128 235.19850113 -25.93695068 235.39089874 -27.05651855 235.58912659 C-34.19905075 236.58613528 -34.19905075 236.58613528 -38.05859375 233.76171875 C-39.19491567 232.74810142 -40.32067492 231.72256006 -41.4375 230.6875 C-42.67479606 229.58206996 -43.9144468 228.47927071 -45.15625 227.37890625 C-45.78917969 226.81574707 -46.42210938 226.25258789 -47.07421875 225.67236328 C-50.1054151 223.04004901 -53.26449067 220.58280814 -56.4375 218.125 C-57.02217041 217.66456299 -57.60684082 217.20412598 -58.20922852 216.72973633 C-60.58185938 214.86180461 -62.9591963 213.02855604 -65.43359375 211.296875 C-67.87803344 209.50658114 -69.75891422 207.99911048 -70.48925781 204.97241211 C-70.62004756 201.64984937 -70.72083145 199.06336677 -68.80908203 196.24316406 C-67.08342472 194.57603042 -65.29139436 193.1312756 -63.375 191.6875 C-61.98806627 190.56797461 -60.60135238 189.44817682 -59.21484375 188.328125 C-58.50827637 187.77318359 -57.80170898 187.21824219 -57.07373047 186.64648438 C-53.95006116 184.16637774 -50.94900376 181.55156604 -47.9375 178.9375 C-46.78205393 177.94697811 -45.6258027 176.95739467 -44.46875 175.96875 C-42.13355023 173.97091544 -39.80027282 171.97087445 -37.46875 169.96875 C-30.83934155 164.27685215 -24.19226295 158.60660069 -17.5234375 152.9609375 C-17.01159912 152.49961426 -16.49976074 152.03829102 -15.97241211 151.56298828 C-14 150 -14 150 -11.02954102 148.33935547 C-6.39108346 145.38169024 -2.87859116 142.87502105 -1.21887207 137.44390869 C0.19837225 129.83386718 0.47152085 122.09386867 0.8125 114.375 C0.99276941 110.88448236 1.18975094 107.39735843 1.42448425 103.9100647 C1.56743745 101.75055045 1.678571 99.58860978 1.75239563 97.42562866 C2.21663959 89.88561202 4.45383299 86.06260889 10 81 C10.7734375 80.25492187 11.546875 79.50984375 12.34375 78.7421875 C13.0553125 78.12601562 13.766875 77.50984375 14.5 76.875 C18.86247229 73.02965968 23.13298666 69.10185396 27.375 65.125 C32.08983312 60.71350545 36.80977501 56.30818777 41.5625 51.9375 C42.47128906 51.10089844 43.38007812 50.26429687 44.31640625 49.40234375 C47.15633438 46.86005001 50.05834008 44.42330575 53 42 C49.4621621 39.01414489 45.90819876 36.71963284 41.82421875 34.546875 C40.66728516 33.928125 39.51035156 33.309375 38.31835938 32.671875 C37.10813237 32.03113768 35.89784516 31.39051408 34.6875 30.75 C33.45743048 30.09422212 32.22761021 29.43797647 30.99804688 28.78125 C28.00111513 27.1828864 25.0017339 25.58932139 22 24 C22.36875244 24.79696289 22.73750488 25.59392578 23.11743164 26.41503906 C24.48160005 29.37782545 25.8352182 32.34514045 27.18188477 35.31591797 C27.76657131 36.60005626 28.35541055 37.88231228 28.94848633 39.16259766 C29.80090817 41.00462909 30.63810286 42.85294225 31.47265625 44.703125 C31.98062744 45.81333008 32.48859863 46.92353516 33.01196289 48.06738281 C34.01979431 51.05875198 34.38652532 52.20004147 33 55 C31.37109375 56.484375 31.37109375 56.484375 29.4375 57.75 C28.79683594 58.17796875 28.15617187 58.6059375 27.49609375 59.046875 C27.00238281 59.36140625 26.50867188 59.6759375 26 60 C19.02968071 45.21113062 12.20294799 30.37038944 5.6875 15.375 C5.25565903 14.38593658 5.25565903 14.38593658 4.81509399 13.37689209 C4.00143895 11.51089819 3.19392939 9.64222821 2.38671875 7.7734375 C1.92483154 6.70528809 1.46294434 5.63713867 0.98706055 4.53662109 C0 2 0 2 0 0 Z M37.125 104.125 C35.44531955 106.92446741 35.54257723 108.79804064 36 112 C37.47993156 114.56338689 37.47993156 114.56338689 40 116 C43.55053329 116 45.28808667 115.64301849 47.9375 113.25 C49.2027898 111.02756768 49.2027898 111.02756768 48.875 108.4375 C47.91041439 105.75044008 47.38918727 104.56532959 45 103 C41.85075452 102.60634432 39.88090884 102.47145469 37.125 104.125 Z M458.5625 105.1875 C456.78753122 107.84621307 456.78753122 107.84621307 457 110.625 C458.24062373 113.57148135 459.11931101 114.59858374 462 116 C465.12680099 116.00674926 465.12680099 116.00674926 468 115 C470.31282587 111.53076119 470.42478586 110.07794425 470 106 C469 104 469 104 467 103 C462.99590435 102.3184518 461.62228428 102.44153975 458.5625 105.1875 Z M121.25 115.125 C118.67258624 117.80990029 118.67258624 117.80990029 119 121.1875 C119.78737233 124.29023828 119.78737233 124.29023828 123 126 C126.12026907 126.32502803 128.14747535 126.51151479 130.875 124.875 C132.57452613 122.04245644 132.52841321 120.23653093 132 117 C129.79511741 114.53583866 129.79511741 114.53583866 127 113 C123.81641589 112.69427625 123.81641589 112.69427625 121.25 115.125 Z M376.3125 114.625 C373.72823189 116.82528373 373.72823189 116.82528373 373.5 120.0625 C373.80564047 122.93341491 373.80564047 122.93341491 375.125 124.875 C377.92446741 126.55468045 379.79804064 126.45742277 383 126 C385.56338689 124.52006844 385.56338689 124.52006844 387 122 C387.16448881 118.90351124 387.16448881 118.90351124 386 116 C382.66552217 112.66552217 380.46799328 112.11237616 376.3125 114.625 Z M113 217 C111.52288915 219.27295464 110.09687153 221.56033284 108.6875 223.875 C105.05715098 229.75666236 101.3462099 235.5696742 97.5 241.3125 C97.02304688 242.02792969 96.54609375 242.74335938 96.0546875 243.48046875 C93.21608874 247.72753255 90.34955821 251.95424577 87.45858765 256.16575623 C85.77785274 258.61892377 84.1073492 261.07896918 82.43798828 263.53988647 C81.60720178 264.75908026 80.77177247 265.97512379 79.93164062 267.18789673 C78.74874741 268.89626886 77.58197107 270.61465959 76.41796875 272.3359375 C75.73500732 273.33157715 75.0520459 274.3272168 74.34838867 275.35302734 C72.80438601 277.83031623 72.80438601 277.83031623 73.13378906 280.1809082 C74.60919134 283.27933615 77.12075393 285.46615793 79.5625 287.8125 C80.06330078 288.30814453 80.56410156 288.80378906 81.08007812 289.31445312 C83.89409272 292.07169063 86.79094038 294.70179452 89.77746582 297.27087402 C93.64965288 300.65028565 97.31461066 304.18502049 100.93164062 307.83398438 C101.57344772 308.47725174 102.21525482 309.1205191 102.87651062 309.78327942 C104.25528115 311.16582472 105.63289651 312.54952286 107.00944519 313.9342804 C109.19418582 316.13190961 111.38214426 318.32629034 113.57092285 320.51989746 C119.0036559 325.96592408 124.43090662 331.41740353 129.8583374 336.86871338 C134.45534891 341.48552674 139.05445135 346.10023822 143.65629578 350.7122345 C145.80081509 352.86318631 147.94227484 355.01715172 150.08361816 357.17126465 C151.41171531 358.50299784 152.73995504 359.83458885 154.06835938 361.16601562 C154.65352829 361.75635086 155.2386972 362.3466861 155.84159851 362.95491028 C159.44416569 366.5579284 163.18741893 369.93248752 167.03986359 373.26570892 C170.09642848 375.97009887 172.9678297 378.84440534 175.83984375 381.7421875 C176.47189728 382.37570129 177.10395081 383.00921509 177.75515747 383.66192627 C179.11264746 385.02319033 180.4689823 386.38560717 181.82424927 387.74908447 C183.97538337 389.91311041 186.12973789 392.07388478 188.28491211 394.23388672 C193.63417053 399.59643673 198.97794525 404.96444046 204.32189941 410.33227539 C208.84844978 414.87862986 213.37709261 419.42288075 217.90847778 423.9644165 C220.01975925 426.08212905 222.12798008 428.20285548 224.23608398 430.32373047 C232.63277568 438.78225252 232.63277568 438.78225252 241.5065918 446.73268127 C243.79687378 448.67623378 245.89380514 450.79839585 248 452.9375 C248.763125 453.70964844 249.52625 454.48179687 250.3125 455.27734375 C250.869375 455.84582031 251.42625 456.41429687 252 457 C255.48654476 455.5158627 257.64191072 453.53785948 260.25 450.8125 C262.96879465 447.97959536 265.75372134 445.32220665 268.7298584 442.76574707 C272.61955261 439.3749522 276.30009595 435.82962236 279.93164062 432.16601562 C280.57344772 431.52274826 281.21525482 430.8794809 281.87651062 430.21672058 C283.25528115 428.83417528 284.63289651 427.45047714 286.00944519 426.0657196 C288.19418582 423.86809039 290.38214426 421.67370966 292.57092285 419.48010254 C297.21677565 414.82288161 301.85868136 410.16173905 306.5 405.5 C311.88291258 400.09340422 317.26747557 394.68847366 322.65629578 389.2877655 C324.80081509 387.13681369 326.94227484 384.98284828 329.08361816 382.82873535 C330.41171531 381.49700216 331.73995504 380.16541115 333.06835938 378.83398438 C333.65352829 378.24364914 334.2386972 377.6533139 334.84159851 377.04508972 C337.80330413 374.08301338 340.82588093 371.24659348 343.9942627 368.5057373 C347.83628873 365.18146041 351.44766008 361.68106935 355.0234375 358.07421875 C355.67499817 357.42119781 356.32655884 356.76817688 356.99786377 356.09536743 C358.39791486 354.6915409 359.79681075 353.28656147 361.19464111 351.88052368 C363.41298821 349.64929113 365.63455062 347.42130408 367.85693359 345.1940918 C372.57411528 340.46554046 377.28735076 335.73306799 382 331 C387.46551981 325.51079943 392.93268852 320.02326234 398.40411377 314.53994751 C400.58187097 312.35575645 402.75656961 310.16855206 404.93115234 307.98120117 C406.27947252 306.62924505 407.62793523 305.27743104 408.9765625 303.92578125 C409.57108215 303.32609528 410.16560181 302.7264093 410.77813721 302.10855103 C414.46349064 298.42274307 418.27845057 294.93797302 422.22492981 291.53305054 C424.56058449 289.51584768 426.83110108 287.44438542 429.0625 285.3125 C430.22458984 284.22388672 430.22458984 284.22388672 431.41015625 283.11328125 C433.23226313 281.19463121 433.23226313 281.19463121 432.79614258 279.18408203 C431.81028483 276.47954864 430.44367237 274.34226591 428.8515625 271.94140625 C428.18471436 270.92908936 427.51786621 269.91677246 426.83081055 268.8737793 C425.73893433 267.23469604 425.73893433 267.23469604 424.625 265.5625 C423.86898913 264.4193958 423.11354686 263.27591537 422.35864258 262.13208008 C421.16563715 260.32498446 419.97200435 258.51832366 418.77613831 256.71311951 C415.75879794 252.15782969 412.76670269 247.58659604 409.78515625 243.0078125 C408.92566411 241.689342 408.06612678 240.37090097 407.20654297 239.05249023 C405.95441358 237.13192973 404.70280563 235.21104348 403.45318604 233.28884888 C402.28763478 231.49695164 401.11879472 229.70724079 399.94921875 227.91796875 C399.28237061 226.89469482 398.61552246 225.8714209 397.9284668 224.81713867 C396.06809617 222.09947609 394.09216947 219.54201067 392 217 C391.6690332 217.46148437 391.33806641 217.92296875 390.99707031 218.3984375 C389.41644978 220.60021036 387.83320707 222.80008633 386.25 225 C385.6710498 225.80711426 385.09209961 226.61422852 384.49560547 227.44580078 C381.53622866 231.55457482 378.54289876 235.6233674 375.4296875 239.6171875 C374.8737793 240.33519531 374.31787109 241.05320312 373.74511719 241.79296875 C372.68085496 243.16066439 371.60623649 244.52037591 370.52050781 245.87109375 C367.83284037 248.9978787 367.83284037 248.9978787 367.16162109 252.85546875 C368.25678212 255.65683581 369.73146434 258.03016234 371.34375 260.5703125 C372.01277344 261.63121094 372.68179687 262.69210937 373.37109375 263.78515625 C374.07363281 264.88730469 374.77617187 265.98945313 375.5 267.125 C376.88604942 269.31470377 378.27149729 271.50478847 379.65625 273.6953125 C380.58147461 275.1496167 380.58147461 275.1496167 381.52539062 276.63330078 C383 279 383 279 384 281 C386.18687453 281.50307444 386.18687453 281.50307444 388.75 281.8125 C393.57569148 282.67546343 395.92586911 284.0333795 399 288 C400.53597454 291.07194908 400.2265038 293.60244293 400 297 C398.72874932 300.4792124 397.62433795 302.46485319 394.8125 304.875 C391.08821435 306.36471426 387.95916073 306.59427565 384 306 C380.28501887 304.34889728 378.07335114 302.4858028 376 299 C375.97070312 296.21606445 375.97070312 296.21606445 376.28125 293.05078125 C376.47490755 284.81226639 373.06627975 279.79832123 368.5 273.1875 C367.78457031 272.10146484 367.06914062 271.01542969 366.33203125 269.89648438 C364.58030441 267.24553776 362.80372261 264.6157176 361 262 C357.72597788 263.38633341 356.07186752 264.84506712 354.00390625 267.71875 C353.44380859 268.48832031 352.88371094 269.25789063 352.30664062 270.05078125 C351.44329102 271.26314453 351.44329102 271.26314453 350.5625 272.5 C350.02173828 273.24636719 349.48097656 273.99273437 348.92382812 274.76171875 C347.69978509 276.45357531 346.48678965 278.15345095 345.28173828 279.85888672 C343.55769589 282.23225816 341.79891137 284.53410292 339.97998047 286.83251953 C330.7927742 298.65774143 325.29539036 310.93860527 320 324.875 C319.18858723 326.95666208 318.3747924 329.03739726 317.55859375 331.1171875 C316.02080257 335.04165124 314.49695828 338.97103166 312.984375 342.90527344 C311.03353404 347.95586134 308.95768125 352.93878937 306.77734375 357.89501953 C305.82678939 360.09505179 305.82678939 360.09505179 306 363 C271.02 363 236.04 363 200 363 C199.505 360.525 199.505 360.525 199 358 C198.35044772 356.12666319 197.65775955 354.26799194 196.93383789 352.42211914 C196.50571304 351.32650162 196.0775882 350.23088409 195.63648987 349.10206604 C195.16992477 347.92498581 194.70335968 346.74790558 194.22265625 345.53515625 C193.7372789 344.31025986 193.25190155 343.08536346 192.7518158 341.823349 C191.72069475 339.22699702 190.68494614 336.63253527 189.6472168 334.03881836 C188.5959432 331.40821281 187.55590062 328.77361439 186.52612305 326.13452148 C181.02784537 312.05453358 175.78863984 298.72854607 166 287 C164.53574151 285.06534466 163.07846629 283.12538016 161.62890625 281.1796875 C160.27565844 279.40975804 158.92022936 277.64149396 157.5625 275.875 C156.18872608 274.08078736 154.81502523 272.28651877 153.44140625 270.4921875 C152.55497437 269.33759033 152.55497437 269.33759033 151.65063477 268.15966797 C150.53790682 266.70378993 149.45788024 265.22240399 148.40991211 263.71923828 C147.94464111 263.15188965 147.47937012 262.58454102 147 262 C146.34 262 145.68 262 145 262 C142.16959245 265.52357737 139.81835596 269.38947897 137.375 273.1875 C136.66859375 274.22326172 135.9621875 275.25902344 135.234375 276.32617188 C130.81551639 283.21464355 129.2357158 288.03759937 129.97265625 296.24047852 C130.00330882 299.33392488 129.57775698 300.40745659 127.625 302.75 C123.97517139 305.87842453 121.93239665 306.2938141 117.09765625 306.21484375 C112.72820369 305.76732068 109.89939379 304.07927254 107.125 300.75 C105.20366981 296.0534151 105.44178784 292.45135161 107.25 287.75 C109.07843211 284.87674954 109.96925657 283.51537172 113 282 C114.41929767 282.00262379 115.83858916 282.01258237 117.2578125 282.02734375 C120.33792944 281.71314087 121.60312473 281.41077299 123.77783203 279.15991211 C125.42371819 276.6262842 126.85818786 274.05650763 128.25 271.375 C129.23177758 269.58971498 130.21611309 267.80583401 131.203125 266.0234375 C131.66525391 265.16459961 132.12738281 264.30576172 132.60351562 263.42089844 C133.90696308 261.16128568 135.32734597 259.16125413 136.921875 257.1015625 C139.24300406 254.34910929 139.24300406 254.34910929 138.80541992 252.05957031 C137.8819985 249.69825383 136.71911963 247.96974078 135.19140625 245.9453125 C134.61350342 245.1716333 134.03560059 244.3979541 133.44018555 243.60083008 C132.82054932 242.78380615 132.20091309 241.96678223 131.5625 241.125 C130.28810245 239.42389589 129.01467307 237.72206606 127.7421875 236.01953125 C127.11022461 235.17600098 126.47826172 234.3324707 125.82714844 233.46337891 C122.78837392 229.3664742 119.85078387 225.1984297 116.93383789 221.01416016 C115.97941921 219.65922467 114.99336295 218.32664812 114 217 C113.67 217 113.34 217 113 217 Z M114.1875 288.5625 C111.74252902 290.84617884 111.74252902 290.84617884 111.5 294.0625 C111.80564047 296.93341491 111.80564047 296.93341491 113.125 298.875 C115.85252465 300.51151479 117.87973093 300.32502803 121 300 C124.24178043 298.29705826 124.24178043 298.29705826 124.875 295.125 C125.24515943 292.0404636 125.24515943 292.0404636 123.875 289.6875 C120.44392083 286.59952874 118.22769074 286.31794959 114.1875 288.5625 Z M382 290 C380.75322994 292.89706707 380.75322994 292.89706707 381 296 C382.43661311 298.52006844 382.43661311 298.52006844 385 300 C388.20195936 300.45742277 390.07553259 300.55468045 392.875 298.875 C394.52854531 296.11909116 394.39365568 294.14924548 394 291 C392.56222319 288.91522362 391.40201761 288.18760822 389.125 287.125 C385.8895789 286.93468111 384.45258681 287.94512997 382 290 Z " fill="#FFFFFF" transform="translate(70,55)"/>
<path d="M0 0 C3.74888398 1.24962799 4.64619319 2.77896986 7.0625 5.875 C10.25774361 9.88329587 13.51929973 13.73150392 17 17.5 C20.27418423 21.05670244 23.40642433 24.67161811 26.4375 28.4375 C29.65943101 32.43223986 33.00655495 36.24554349 36.5 40 C40.78955113 44.61004336 44.80410672 49.37782956 48.75390625 54.28515625 C51.0883059 57.10673495 53.51990598 59.80590712 56 62.5 C60.04911067 66.90011717 63.87193797 71.42847564 67.6015625 76.1015625 C70.96181311 80.16232138 74.48124366 84.07651671 78 88 C82.02141141 86.39727986 86.04202402 84.79256509 90.0625 83.1875 C91.19623047 82.73568359 92.32996094 82.28386719 93.49804688 81.81835938 C94.60341797 81.37685547 95.70878906 80.93535156 96.84765625 80.48046875 C97.85836182 80.07723389 98.86906738 79.67399902 99.91040039 79.25854492 C103.0499273 78.03186727 103.0499273 78.03186727 106.13989258 76.38964844 C111.18456145 74.23424255 116.50574754 74.39677796 121.9140625 74.28515625 C123.07015518 74.25663574 124.22624786 74.22811523 125.41737366 74.19873047 C129.15346654 74.12538755 132.88828604 74.08788524 136.625 74.0625 C137.8883316 74.0503244 139.15166321 74.0381488 140.45327759 74.02560425 C160.0196643 73.93349156 175.78873223 75.71609299 192.65893555 86.01196289 C195.59567163 87.25140089 197.01609506 87.03904659 200 86 C202.01740598 84.00039466 203.73911734 82.08016509 205.5 79.875 C206.56308896 78.58925379 207.62691595 77.30411751 208.69140625 76.01953125 C209.23684082 75.3538916 209.78227539 74.68825195 210.34423828 74.00244141 C212.98624967 70.80725158 215.71256575 67.68694849 218.4375 64.5625 C219.53023539 63.30363489 220.62268184 62.04451893 221.71484375 60.78515625 C222.25737793 60.16012207 222.79991211 59.53508789 223.35888672 58.89111328 C225.53315899 56.38562191 227.70576288 53.87868729 229.87817383 51.37158203 C230.95726481 50.12631461 232.03652847 48.88119681 233.1159668 47.63623047 C235.87714658 44.4514393 238.6359061 41.26460072 241.390625 38.07421875 C246.13044684 32.58874535 250.87050711 27.11235937 255.75 21.75 C260.94162178 16.02394657 265.80786814 10.03094023 270.60546875 3.97265625 C271.69551131 2.6140988 272.84063132 1.29989822 274 0 C274.66 0 275.32 0 276 0 C278.02932599 9.04364026 279.17910761 18.20288607 280.3828125 27.3828125 C280.60386869 29.05007684 280.82521755 30.7173024 281.04684448 32.38449097 C281.6251246 36.74054477 282.19946636 41.09710878 282.77294922 45.45379639 C283.36054699 49.91222504 283.95192361 54.37015229 284.54296875 58.828125 C285.6989814 67.55160094 286.85082791 76.27562031 288 85 C289.43497505 83.57691232 290.86823595 82.15209605 292.30078125 80.7265625 C293.09911377 79.93330566 293.89744629 79.14004883 294.7199707 78.32275391 C296.61747434 76.38969366 298.42576433 74.43066446 300.1875 72.375 C303.63907375 68.35218677 307.24984044 64.49059406 310.875 60.625 C315.57185691 55.61366538 320.2222761 50.56935852 324.80078125 45.44921875 C328.68697875 41.12125102 332.63086508 36.84602356 336.56640625 32.56298828 C338.03672653 30.95995857 339.5032008 29.3534858 340.96875 27.74609375 C341.45553223 27.21290527 341.94231445 26.6797168 342.44384766 26.13037109 C343.7939392 24.65130458 345.1430934 23.17138261 346.4921875 21.69140625 C348.94077644 19.06355924 351.44472245 16.52322209 354 14 C353.46219176 21.96375788 352.50039632 29.72153585 351.0390625 37.56640625 C350.84782806 38.60772202 350.65659363 39.64903778 350.45956421 40.72190857 C350.05755754 42.8979508 349.65238632 45.07341065 349.24414062 47.24829102 C348.6211335 50.58319705 348.01729114 53.92123243 347.4140625 57.25976562 C347.01938897 59.38302841 346.62359615 61.50608352 346.2265625 63.62890625 C346.0483194 64.62571915 345.87007629 65.62253204 345.68643188 66.64955139 C345.5096994 67.57158859 345.33296692 68.49362579 345.15087891 69.44360352 C345.00067291 70.25346207 344.85046692 71.06332062 344.69570923 71.89772034 C343.06495284 76.82550603 338.31529608 78.72466207 334 81 C333.34 81 332.68 81 332 81 C332.7238468 73.75391255 333.83819599 66.6146037 335.0625 59.4375 C335.24876953 58.33341797 335.43503906 57.22933594 335.62695312 56.09179688 C336.0824009 53.39414468 336.54013024 50.69690126 337 48 C336.36167236 48.73790771 336.36167236 48.73790771 335.71044922 49.49072266 C331.60747006 54.21021747 327.41229785 58.8229427 323.125 63.375 C318.43267301 68.37928224 313.78505536 73.41510118 309.21875 78.53515625 C307.56634168 80.37084225 305.90167237 82.18878646 304.21875 83.99609375 C303.73623779 84.51598877 303.25372559 85.03588379 302.7565918 85.5715332 C301.39899726 87.03195147 300.03751937 88.48875706 298.67578125 89.9453125 C298.2470018 90.44130447 297.81822235 90.93729645 297.37644958 91.44831848 C296 93 296 93 294.37757874 94.49638367 C291.36904389 97.65632319 290.0565738 99.92707868 289.82350159 104.34729004 C290.17384534 108.5049265 290.73482764 112.57996905 291.3828125 116.69921875 C291.59630148 118.22236814 291.80660819 119.74596663 292.0138855 121.26997375 C292.56557115 125.26601715 293.15804207 129.25492456 293.7600708 133.24365234 C294.36585035 137.3004199 294.93626156 141.36212016 295.5078125 145.42382812 C296.15057993 149.99068499 296.7961625 154.55675985 297.47390747 159.11857605 C297.5760405 159.81293259 297.67817352 160.50728912 297.78340149 161.22268677 C298.05913017 163.09317248 298.33840568 164.96313439 298.61795044 166.83305359 C298.95172612 169.59984045 299.07713858 172.21837152 299 175 C297.53984709 174.71758359 296.08190207 174.42373386 294.625 174.125 C293.81289063 173.96257812 293.00078125 173.80015625 292.1640625 173.6328125 C290 173 290 173 288 171 C287.45996761 168.51338291 287.45996761 168.51338291 287.04490662 165.31288147 C286.80314697 163.49780342 286.80314697 163.49780342 286.5565033 161.64605713 C286.38574206 160.29799297 286.21513888 158.94990878 286.04467773 157.60180664 C285.85955677 156.18758079 285.67367628 154.77345419 285.48709106 153.35942078 C285.08651198 150.31091608 284.6913647 147.26177306 284.30038261 144.21202278 C283.68242161 139.39182596 283.05270445 134.57321041 282.42140198 129.75474548 C281.42443401 122.13417432 280.43566405 114.51256477 279.45023447 106.89049381 C277.68510626 93.239565 275.90656184 79.59038135 274.12437397 65.94167036 C273.49894877 61.14934365 272.87724554 56.35655255 272.25860775 51.56334507 C271.87353889 48.5835163 271.48611424 45.60399697 271.09814835 42.62454414 C270.91850878 41.24075356 270.73991112 39.85682727 270.5624218 38.47275925 C270.32037684 36.58618851 270.07435063 34.70012983 269.82810974 32.81410217 C269.69151664 31.75755967 269.55492353 30.70101717 269.41419125 29.61245823 C269.05687885 26.89768062 269.05687885 26.89768062 268 24 C267.23816406 24.89460938 266.47632813 25.78921875 265.69140625 26.7109375 C260.95735268 32.25825942 256.2247621 37.79620525 251.3125 43.1875 C248.28287132 46.52227114 245.39391908 49.93287639 242.5625 53.4375 C238.70058325 58.21284402 234.62325776 62.73667685 230.46484375 67.25390625 C227.30033084 70.77950462 224.35063908 74.45726967 221.3828125 78.1484375 C218.21528745 81.93908223 214.8641405 85.54458256 211.45336914 89.11694336 C208.79257852 91.62799575 208.79257852 91.62799575 208 95 C209.87189058 96.7364329 209.87189058 96.7364329 212.3125 98.5625 C213.22773438 99.27664062 214.14296875 99.99078125 215.0859375 100.7265625 C216.04757812 101.47679688 217.00921875 102.22703125 218 103 C219.81712301 104.4734837 221.62964374 105.95266128 223.4375 107.4375 C224.34371094 108.18 225.24992187 108.9225 226.18359375 109.6875 C228.1354048 111.29009659 230.08583225 112.8943792 232.03515625 114.5 C233.01355469 115.304375 233.99195313 116.10875 235 116.9375 C235.886875 117.66839844 236.77375 118.39929688 237.6875 119.15234375 C240.05900021 121.10145442 240.05900021 121.10145442 243 123 C243 123.66 243 124.32 243 125 C242.360625 125.45375 241.72125 125.9075 241.0625 126.375 C238.7323843 128.21084873 238.39598702 129.12909413 238 132 C234.75539105 130.52920916 232.19445505 128.68575824 229.4375 126.4375 C228.11878906 125.36628906 228.11878906 125.36628906 226.7734375 124.2734375 C225.40058594 123.14808594 225.40058594 123.14808594 224 122 C223.10539062 121.27039063 222.21078125 120.54078125 221.2890625 119.7890625 C217.55279768 116.73795799 213.82228619 113.68024485 210.10546875 110.60546875 C209.16316406 109.82816406 208.22085937 109.05085938 207.25 108.25 C206.40953125 107.55390625 205.5690625 106.8578125 204.703125 106.140625 C179.44052959 86.13498586 150.37567664 82.20111915 118.94482422 85.17578125 C98.24669646 87.67772066 81.24279211 97.3407375 66 111 C63.6780417 112.90128097 61.31360537 114.72815843 58.9375 116.5625 C53.26584909 120.95746775 47.7690294 125.52207767 42.328125 130.19921875 C40 132 40 132 38 132 C37.5978125 130.824375 37.5978125 130.824375 37.1875 129.625 C36.15185568 126.71885077 36.15185568 126.71885077 33 125 C33 124.34 33 123.68 33 123 C34.80078125 121.37109375 34.80078125 121.37109375 37.3125 119.4375 C38.22773438 118.72335938 39.14296875 118.00921875 40.0859375 117.2734375 C41.04757813 116.52320312 42.00921875 115.77296875 43 115 C44.81712301 113.5265163 46.62964374 112.04733872 48.4375 110.5625 C49.34371094 109.82 50.24992188 109.0775 51.18359375 108.3125 C53.1354048 106.70990341 55.08583225 105.1056208 57.03515625 103.5 C58.01355469 102.695625 58.99195313 101.89125 60 101.0625 C60.886875 100.33160156 61.77375 99.60070312 62.6875 98.84765625 C65 97 65 97 68 95 C66.43767979 91.32043709 64.16415918 88.83484207 61.4375 85.9375 C58.0046517 82.24636541 54.72061908 78.49589741 51.5625 74.5625 C48.34056899 70.56776014 44.99344505 66.75445651 41.5 63 C37.21044887 58.38995664 33.19589328 53.62217044 29.24609375 48.71484375 C26.1318267 44.95064271 22.81601653 41.38636278 19.5078125 37.79296875 C15.5027676 33.33252155 11.74681784 28.67899716 8 24 C6.39384935 32.22428793 5.24118549 40.46073386 4.23168945 48.77734375 C4.06577092 50.12387922 3.89948516 51.47036948 3.73286438 52.81681824 C3.46824591 54.95590116 3.2039114 57.09501608 2.94073355 59.23427677 C2.29059966 64.51857998 1.62932217 69.80140409 0.96147156 75.08349609 C0.86412399 75.85351959 0.76677642 76.62354309 0.66647893 77.41690063 C0.26576507 80.58487888 -0.13531131 83.75281114 -0.53654993 86.92072296 C-1.67253485 95.89344332 -2.79760491 104.86723972 -3.89135742 113.84521484 C-4.76337938 121.00251615 -5.65820478 128.15654244 -6.58012801 135.30759335 C-7.06631611 139.08560936 -7.54075921 142.86428489 -7.98749352 146.64718628 C-8.40695986 150.19705866 -8.85651435 153.7417947 -9.32960701 157.28490639 C-9.57794966 159.20547843 -9.79392545 161.13014866 -10.00897217 163.05473328 C-11.13915776 171.20649588 -11.13915776 171.20649588 -13.57001686 173.44720459 C-16.74914968 174.92167411 -19.52017039 175 -23 175 C-22.40882076 165.8478395 -21.3786788 156.82307148 -20.08203125 147.74609375 C-19.80568453 145.75422041 -19.52935232 143.76234492 -19.25389385 141.77034855 C-18.58242601 136.91973748 -17.90365802 132.07020895 -17.2121582 127.22241211 C-16.82093906 124.47706553 -16.43631988 121.73094996 -16.05900574 118.98365784 C-15.70530793 116.41025241 -15.34180827 113.838171 -14.96748352 111.26768494 C-14.81039413 110.10870193 -14.65330475 108.94971893 -14.49145508 107.75561523 C-14.34791092 106.73781479 -14.20436676 105.72001434 -14.05647278 104.67137146 C-13.95097891 99.68112084 -16.68586773 97.02799161 -19.9375 93.5 C-20.74316406 92.62085937 -21.54882812 91.74171875 -22.37890625 90.8359375 C-23.24386719 89.90007812 -24.10882813 88.96421875 -25 88 C-26.33492991 86.54121061 -27.66985162 85.08241356 -29.00415039 83.62304688 C-30.86431568 81.5902821 -32.72859382 79.56130942 -34.59277344 77.53222656 C-37.35013799 74.52993302 -40.10408751 71.5245032 -42.85693359 68.51806641 C-45.24285226 65.91314624 -47.63347392 63.3127635 -50.03125 60.71875 C-50.52818359 60.17992187 -51.02511719 59.64109375 -51.53710938 59.0859375 C-52.91936043 57.58742234 -54.30337595 56.09053531 -55.6875 54.59375 C-57.59242498 52.45714495 -59.30400457 50.2996134 -61 48 C-60.84329834 48.85754883 -60.68659668 49.71509766 -60.52514648 50.59863281 C-59.94640679 53.78807398 -59.37512696 56.97873679 -58.80883789 60.17041016 C-58.56246266 61.55017623 -58.31314122 62.92941966 -58.06079102 64.30810547 C-57.69809934 66.29253687 -57.34695341 68.27906749 -56.99609375 70.265625 C-56.78138428 71.45961914 -56.5666748 72.65361328 -56.34545898 73.88378906 C-56.0345402 76.6884303 -56.06657311 78.37846065 -57 81 C-60.78568592 79.84227616 -63.8447786 78.40835834 -67 76 C-68.015625 73.60400391 -68.015625 73.60400391 -68.5625 70.6640625 C-68.78977783 69.50527588 -69.01705566 68.34648926 -69.2512207 67.15258789 C-69.36881744 66.49799591 -69.48641418 65.84340393 -69.60757446 65.16897583 C-70.04049236 62.77619462 -70.50704891 60.39133548 -70.97729492 58.00561523 C-71.89213246 53.33418157 -72.77428444 48.65726834 -73.64428711 43.97729492 C-74.19114238 41.04295556 -74.74677804 38.11036131 -75.30273438 35.17773438 C-75.65417982 33.2969747 -76.00510994 31.41611865 -76.35546875 29.53515625 C-76.52104782 28.66633316 -76.68662689 27.79751007 -76.85722351 26.90235901 C-77.65982622 22.53698987 -78.19076928 18.46200732 -78 14 C-76.8717446 15.1282554 -75.74385044 16.25687314 -74.6171875 17.38671875 C-73.46082551 18.5402876 -72.29870256 19.68809309 -71.1328125 20.83203125 C-67.30499398 24.60771994 -63.67637868 28.46777754 -60.171875 32.54296875 C-57.22087018 35.88142564 -54.17271622 39.12493409 -51.125 42.375 C-46.45175932 47.36080952 -41.82726265 52.38101838 -37.2734375 57.4765625 C-34.03695071 61.06895162 -30.74815626 64.61218005 -27.46289062 68.15991211 C-23.51490037 72.42864481 -19.61664383 76.73851762 -15.7421875 81.07421875 C-14.52933092 82.41488757 -13.27836105 83.72163895 -12 85 C-11.79661766 83.44691635 -11.79661766 83.44691635 -11.58912659 81.86245728 C-10.31290028 72.12049299 -9.03289154 62.37903224 -7.74914646 52.6380558 C-7.08923196 47.62972111 -6.43066668 42.62121659 -5.77514648 37.61230469 C-5.14287306 32.78140524 -4.50710574 27.95097751 -3.86887932 23.12086105 C-3.62560614 21.27498221 -3.38360754 19.42893494 -3.14288521 17.58272171 C-2.80636013 15.00342512 -2.46537026 12.42475638 -2.12329102 9.84619141 C-1.97439674 8.69281029 -1.97439674 8.69281029 -1.82249451 7.51612854 C-1.11405216 2.22810432 -1.11405216 2.22810432 0 0 Z " fill="#FFFFFF" transform="translate(185,0)"/>
<path d="M0 0 C0.30067383 0.69222656 0.60134766 1.38445312 0.91113281 2.09765625 C17.7779746 40.8034247 37.27447091 77.37450529 63 111 C63.72848145 111.9580957 63.72848145 111.9580957 64.47167969 112.93554688 C78.15446564 130.87924237 93.38655623 147.57420142 109.33398438 163.51928711 C111.00421095 165.1917165 112.66622379 166.87203669 114.328125 168.55273438 C120.16183169 174.41618786 126.07436241 179.92052376 132.57470703 185.04833984 C135.10515708 187.08462107 137.49183308 189.23155339 139.875 191.4375 C145.02176993 196.10980207 150.4635149 200.33508432 156.01708984 204.50585938 C158.23391628 206.17625802 160.43908027 207.86148866 162.64453125 209.546875 C173.49411173 217.80414382 184.53811692 225.61785414 196 233 C196.76666992 233.4959668 197.53333984 233.99193359 198.32324219 234.50292969 C208.55840418 241.1072178 218.93708336 247.41496393 229.52734375 253.43359375 C232.42869361 255.08340537 235.29085337 256.7787893 238.12890625 258.53515625 C238.76530029 258.92155273 239.40169434 259.30794922 240.05737305 259.70605469 C241.75081198 260.73690294 243.43442166 261.7838506 245.1171875 262.83203125 C247.89608632 264.31802583 247.89608632 264.31802583 250.39501953 263.22070312 C283.29724758 247.80260189 314.92662943 226.23183219 343.19042969 203.45800781 C345.13549309 201.89083045 347.08738652 200.33236995 349.0390625 198.7734375 C356.01015919 193.18096853 362.83153985 187.50550731 369.375 181.4140625 C370.76516286 180.13560916 372.16146213 178.86261058 373.59985352 177.63867188 C380.07616673 172.12311625 386.06118445 166.12490929 392.07202148 160.11328125 C393.92477468 158.26271033 395.78538706 156.42029924 397.64648438 154.578125 C403.83769821 148.41537901 409.7208053 142.21515034 415.12280273 135.33862305 C417.02417551 132.96988201 419.03572991 130.76601892 421.125 128.5625 C428.39483105 120.56949204 434.62433895 111.70726315 441 103 C441.78745605 101.93434814 441.78745605 101.93434814 442.59082031 100.84716797 C465.50366771 69.75980307 482.8736713 35.41134753 498 0 C503.445 0.495 503.445 0.495 509 1 C498.90713871 29.95842057 484.97467031 58.46030726 468 84 C467.02312738 85.49068224 466.04657996 86.98157762 465.0703125 88.47265625 C455.53639318 102.96488449 445.54889744 116.81661893 434.49267578 130.18701172 C432.43156727 132.6904124 430.40733329 135.22321711 428.375 137.75 C423.9699733 143.12062133 419.31052752 148.23830644 414.5703125 153.31201172 C412.89111861 155.11704072 411.22659735 156.9349554 409.5625 158.75390625 C401.03132736 168.02816452 392.11585769 176.78295747 382.83886719 185.30957031 C381.28453919 186.73842946 379.73893009 188.1767644 378.1953125 189.6171875 C373.19362703 194.22529772 367.96339115 198.46738678 362.59301758 202.63183594 C358.68754724 205.6606322 354.84337079 208.75210965 351.02856445 211.89428711 C343.25601565 218.28613041 335.31453365 224.32906166 327 230 C325.59427734 230.96099609 325.59427734 230.96099609 324.16015625 231.94140625 C308.11152207 242.8719346 291.83271524 253.30437704 275 263 C273.35451172 263.95205322 273.35451172 263.95205322 271.67578125 264.92333984 C268.40029958 266.80502988 265.11035182 268.6578455 261.8125 270.5 C260.81452393 271.07081299 259.81654785 271.64162598 258.78833008 272.22973633 C257.85400146 272.74173584 256.91967285 273.25373535 255.95703125 273.78125 C254.73463745 274.4628418 254.73463745 274.4628418 253.48754883 275.15820312 C249.32819765 276.56574487 246.19518849 275.52114102 242.26538086 273.80761719 C240.87911499 273.0597998 240.87911499 273.0597998 239.46484375 272.296875 C238.41949463 271.73581055 237.37414551 271.17474609 236.29711914 270.59667969 C235.18844482 269.98727539 234.07977051 269.37787109 232.9375 268.75 C232.36176239 268.43599243 231.78602478 268.12198486 231.19284058 267.79846191 C197.81790912 249.58631303 165.93377932 227.94990171 136.81738281 203.51318359 C134.36584163 201.47198904 131.86846736 199.48962513 129.375 197.5 C123.59071159 192.77616446 118.18595505 187.66649448 112.76171875 182.5390625 C110.41272417 180.31900176 108.04638821 178.12367943 105.64453125 175.9609375 C97.87105357 168.95046451 90.69170142 161.5167904 83.63720703 153.78564453 C82.12371283 152.13492926 80.59541338 150.5000702 79.05859375 148.87109375 C72.78128032 142.18897027 67.07079085 135.19243103 61.49511719 127.92773438 C59.93695614 125.91871418 58.35075448 123.93465826 56.7578125 121.953125 C30.50809592 89.11462414 -1.75009547 43.23459099 -11 1 C-7.25818125 0.11957206 -3.83583759 -0.04250236 0 0 Z " fill="#FFFFFF" transform="translate(74,291)"/>
<path d="M0 0 C0.81406311 0.10573334 1.62812622 0.21146667 2.46685791 0.32040405 C4.74515422 0.62088446 7.02116449 0.93449307 9.296875 1.25390625 C10.59463867 1.43381104 11.89240234 1.61371582 13.22949219 1.79907227 C16.25 2.4375 16.25 2.4375 18.25 4.4375 C16.48874035 8.0059652 14.64107291 10.31182745 11.25 12.4375 C6.04850778 12.72006443 1.14444232 11.78661799 -3.97119141 10.89599609 C-9.02095874 10.06279779 -14.10214979 9.50549854 -19.1875 8.9375 C-20.31889404 8.81036621 -21.45028809 8.68323242 -22.6159668 8.55224609 C-73.46243978 3.06945179 -125.53614289 3.98350729 -176.05078125 12.10546875 C-183.92309437 13.07384301 -183.92309437 13.07384301 -186.6484375 10.9765625 C-187.13570312 10.34492187 -187.62296875 9.71328125 -188.125 9.0625 C-188.62773437 8.43601562 -189.13046875 7.80953125 -189.6484375 7.1640625 C-190.75 5.4375 -190.75 5.4375 -190.75 3.4375 C-180.20004303 1.34726574 -169.68624764 -0.37176306 -159 -1.625 C-158.28547668 -1.70899048 -157.57095337 -1.79298096 -156.83477783 -1.8795166 C-152.46508746 -2.38881014 -148.09348318 -2.87773784 -143.71960449 -3.34967041 C-141.94454353 -3.54147821 -140.16999129 -3.73797986 -138.39550781 -3.93505859 C-92.50395045 -8.80985248 -45.63653187 -5.98248944 0 0 Z " fill="#FFFFFF" transform="translate(409.75,24.5625)"/>
<path d="M0 0 C3.58994241 0.55545157 6.06422502 1.4178289 9.07421875 3.44140625 C9.81961914 3.93890381 10.56501953 4.43640137 11.33300781 4.94897461 C12.10999023 5.48143799 12.88697266 6.01390137 13.6875 6.5625 C14.88971191 7.37569702 14.88971191 7.37569702 16.11621094 8.20532227 C21.97430244 12.20502974 27.58023562 16.42141712 33 21 C33.62519531 21.49242188 34.25039063 21.98484375 34.89453125 22.4921875 C37.58082202 24.61857223 38.891165 25.67349501 40 29 C43.49006338 63.16815137 40.99039253 99.39841038 34 133 C30.18778895 131.38714148 26.64867324 129.20909354 24 126 C23.67016602 122.68530273 23.67016602 122.68530273 24.25390625 118.93359375 C24.39625954 117.92148582 24.39625954 117.92148582 24.54148865 116.88893127 C24.85128975 114.73259935 25.20534861 112.58644536 25.5625 110.4375 C25.88440345 108.31293723 26.19702919 106.18716063 26.50852966 104.06105042 C26.79913149 102.11195713 27.11093939 100.16605963 27.42407227 98.22045898 C28.81109815 88.72630867 29.14459449 79.25387093 29.09765625 69.671875 C29.0962413 68.55685608 29.09482635 67.44183716 29.09336853 66.29302979 C29.08783115 62.77865765 29.07529087 59.26435244 29.0625 55.75 C29.05747689 53.34765718 29.05291541 50.94531335 29.04882812 48.54296875 C29.03788234 42.69529019 29.02120805 36.84764988 29 31 C28.09483643 30.56892944 28.09483643 30.56892944 27.17138672 30.12915039 C24.20876407 28.58854664 21.72202429 26.51362327 19.125 24.4375 C13.77590057 20.21684708 8.24972948 16.46180792 2.40673828 12.95678711 C-1.8954302 10.3137094 -1.8954302 10.3137094 -3 7 C-2.07796291 4.63477442 -1.08301035 2.29598193 0 0 Z " fill="#FFFFFF" transform="translate(572,78)"/>
<path d="M0 0 C0.99 2.97 1.98 5.94 3 9 C1.60452042 9.97967076 0.20858248 10.9586886 -1.1875 11.9375 C-2.095 12.57429688 -3.0025 13.21109375 -3.9375 13.8671875 C-6.05564052 15.34232107 -8.17830876 16.80641321 -10.3125 18.2578125 C-17.46731141 23.12083388 -17.46731141 23.12083388 -24.1875 28.5625 C-27 31 -27 31 -29 31 C-29.94987701 73.63044877 -29.94987701 73.63044877 -25.07421875 115.890625 C-23.32942737 124.97189847 -23.32942737 124.97189847 -25.58984375 128.4375 C-30.5177002 133 -30.5177002 133 -34 133 C-36.53823957 118.03657898 -38.80218513 103.13424404 -40 88 C-40.05784668 87.29536621 -40.11569336 86.59073242 -40.17529297 85.86474609 C-41.45570942 69.74365709 -41.32945462 53.52506025 -40.6875 37.375 C-40.66510254 36.59979004 -40.64270508 35.82458008 -40.61962891 35.02587891 C-40.35870768 29.73071284 -39.47602579 26.38692222 -35.62280273 22.67236328 C-33.91557605 21.17909372 -32.16245653 19.7711978 -30.375 18.375 C-29.40203979 17.60482544 -29.40203979 17.60482544 -28.40942383 16.8190918 C-6.7701794 0 -6.7701794 0 0 0 Z " fill="#FFFFFF" transform="translate(74,78)"/>
<path d="M0 0 C3.45658479 2.04573386 4.7785359 3.66780385 7 7 C7.95624937 11.48701629 8.37836308 13.9069511 6.875 18.25 C4.46701319 21.78171399 1.8203747 24.08981265 -2 26 C-6.13947451 26.32466467 -8.43893787 26.31767578 -12.09765625 24.24609375 C-15.54252473 22.69986703 -17.45341765 23.15526409 -20.953125 24.45703125 C-22.72969542 25.21709672 -24.49533454 26.00314773 -26.25 26.8125 C-28.02428383 27.59384769 -29.80025775 28.37137192 -31.578125 29.14453125 C-32.35575195 29.49878174 -33.13337891 29.85303223 -33.93457031 30.21801758 C-36 31 -36 31 -39 31 C-39.14514038 32.3605249 -39.14514038 32.3605249 -39.29321289 33.74853516 C-40.09242227 39.30500949 -41.75613521 44.63973473 -43.30859375 50.0234375 C-43.63537613 51.16535553 -43.96215851 52.30727356 -44.29884338 53.48379517 C-44.98822742 55.88654073 -45.6800856 58.28857763 -46.37426758 60.68994141 C-47.43910222 64.38055313 -48.49040328 68.0748492 -49.54101562 71.76953125 C-50.21272257 74.10440247 -50.8852208 76.43904621 -51.55859375 78.7734375 C-51.87324081 79.88375336 -52.18788788 80.99406921 -52.5120697 82.13803101 C-52.95746849 83.6656456 -52.95746849 83.6656456 -53.41186523 85.22412109 C-53.80038918 86.57478165 -53.80038918 86.57478165 -54.19676208 87.95272827 C-55 90 -55 90 -57 91 C-58.9453125 90.44140625 -58.9453125 90.44140625 -61.125 89.5625 C-62.21167969 89.13130859 -62.21167969 89.13130859 -63.3203125 88.69140625 C-63.87460937 88.46324219 -64.42890625 88.23507812 -65 88 C-64.29502188 81.26118508 -62.4131931 74.92334203 -60.54296875 68.42578125 C-60.19873367 67.22439011 -59.8544986 66.02299896 -59.49983215 64.78520203 C-58.77197939 62.25374547 -58.04142762 59.72306357 -57.30834961 57.19311523 C-56.37156984 53.95857953 -55.45144386 50.71955386 -54.53513622 47.47916889 C-53.65344809 44.3747084 -52.75321949 41.27562795 -51.85546875 38.17578125 C-51.52927048 37.01532791 -51.2030722 35.85487457 -50.86698914 34.65925598 C-50.55018692 33.58101059 -50.2333847 32.5027652 -49.90698242 31.3918457 C-49.63464279 30.44477249 -49.36230316 29.49769928 -49.08171082 28.52192688 C-47.43330346 24.67878992 -45.16609588 22.58922787 -41.46630859 20.71972656 C-40.53641113 20.36362305 -39.60651367 20.00751953 -38.6484375 19.640625 C-37.63265625 19.24746094 -36.616875 18.85429687 -35.5703125 18.44921875 C-34.51585937 18.05347656 -33.46140625 17.65773437 -32.375 17.25 C-31.3128125 16.83878906 -30.250625 16.42757812 -29.15625 16.00390625 C-21.31216258 13 -21.31216258 13 -19 13 C-18.79375 11.783125 -18.5875 10.56625 -18.375 9.3125 C-17.41833596 5.64854182 -16.15150602 3.15457334 -12.9765625 0.84765625 C-8.78589904 -0.94952551 -4.42834399 -0.74255768 0 0 Z M-10.3125 7.5625 C-12.36113011 10.00322397 -12.36113011 10.00322397 -11.875 13.625 C-11.29259286 17.04542055 -11.29259286 17.04542055 -9 19 C-5.36727627 19.47383353 -3.64620436 19.4591452 -0.625 17.3125 C1.14214642 15.11013384 1.14214642 15.11013384 1.5625 12.5 C1.17978683 9.78147123 1.17978683 9.78147123 -1.25 7.6875 C-4.77824549 5.52244027 -6.80985414 5.19584739 -10.3125 7.5625 Z " fill="#FFFFFF" transform="translate(419,185)"/>
<path d="M0 0 C3.56317365 1.71821022 5.53550373 4.11323439 7.375 7.625 C8 10 8 10 8 13 C8.52464844 13.13535156 9.04929688 13.27070313 9.58984375 13.41015625 C15.5614264 15.06948121 21.2695571 17.22111321 27 19.5625 C28.13103149 20.01991577 28.13103149 20.01991577 29.28491211 20.48657227 C34.75353621 22.75353621 34.75353621 22.75353621 37 25 C37.66817183 26.831496 38.25663445 28.69240952 38.8034668 30.5637207 C39.14689621 31.72865555 39.49032562 32.89359039 39.84416199 34.09382629 C40.20883072 35.35837143 40.57349945 36.62291656 40.94921875 37.92578125 C41.32965073 39.23381177 41.71033564 40.54176876 42.09126282 41.84965515 C42.8884234 44.59304747 43.68032063 47.33789665 44.46899414 50.08374023 C45.47911191 53.59782908 46.50541762 57.10695335 47.53618145 60.61503315 C48.32722554 63.31601705 49.10789161 66.01991907 49.88566017 68.72475243 C50.44126291 70.64823827 51.00690007 72.56881647 51.57267761 74.48933411 C52.07363701 76.2509211 52.07363701 76.2509211 52.5847168 78.0480957 C52.88290817 79.0790889 53.18109955 80.11008209 53.48832703 81.1723175 C54.02581692 84.14267329 53.7984838 86.11247636 53 89 C49.04 89.99 49.04 89.99 45 91 C42.54142706 84.70493681 40.53758861 78.34496769 38.64453125 71.859375 C38.33803146 70.81477112 38.03153168 69.77016724 37.71574402 68.69390869 C37.07298978 66.49920218 36.43184681 64.3040232 35.79223633 62.10839844 C34.81101371 58.7449052 33.82078634 55.38414727 32.83007812 52.0234375 C32.20517974 49.88557719 31.58081212 47.74756164 30.95703125 45.609375 C30.6602095 44.60517517 30.36338776 43.60097534 30.05757141 42.56634521 C29.78696396 41.63147278 29.51635651 40.69660034 29.23754883 39.73339844 C28.99788895 38.91369568 28.75822906 38.09399292 28.51130676 37.24945068 C28 35 28 35 28 31 C27.35804688 30.91234375 26.71609375 30.8246875 26.0546875 30.734375 C23.43160137 30.10376094 21.28114517 29.3288801 18.8203125 28.265625 C18.05589844 27.93949219 17.29148438 27.61335938 16.50390625 27.27734375 C14.91878526 26.59280053 13.3404925 25.89222295 11.76953125 25.17578125 C7.46274984 23.37344752 5.82158461 22.71787417 1.24609375 24.2890625 C0.17488281 24.85367188 -0.89632812 25.41828125 -2 26 C-6.34876195 26.52363947 -10.34011107 26.22149085 -13.9375 23.57421875 C-17.17548557 20.06380651 -19.09982526 16.8914378 -19 12 C-18.08176315 7.88789583 -16.63398438 4.79248048 -14 1.5 C-9.3787948 -0.8106026 -5.05820406 -0.86033969 0 0 Z M-9.9375 8.0625 C-12.30527241 10.83657134 -12.30527241 10.83657134 -12 14.1875 C-11.21262767 17.29023828 -11.21262767 17.29023828 -8 19 C-5 19.5 -5 19.5 -2 19 C0.3631167 16.87319497 0.92843783 15.58680978 1.3125 12.4375 C1.15077513 9.74474036 1.15077513 9.74474036 -1 7 C-5.07446517 5.55130127 -6.34729109 5.54171502 -9.9375 8.0625 Z " fill="#FFFFFF" transform="translate(238,185)"/>
<path d="M0 0 C2.6875 1.4375 2.6875 1.4375 5 3 C4.125 7.875 4.125 7.875 3 9 C0.5625 9.1875 0.5625 9.1875 -2 9 C-2.66 8.34 -3.32 7.68 -4 7 C-3.625 3.875 -3.625 3.875 -3 1 C-2.01 0.67 -1.02 0.34 0 0 Z " fill="#FFFFFF" transform="translate(413,193)"/>
<path d="M0 0 C2.25 0.25 2.25 0.25 4 1 C4.625 3.875 4.625 3.875 5 7 C3 9 3 9 0.375 9.125 C-0.40875 9.08375 -1.1925 9.0425 -2 9 C-2.66 7.35 -3.32 5.7 -4 4 C-2.25 1.9375 -2.25 1.9375 0 0 Z " fill="#FFFFFF" transform="translate(232,193)"/>
<path d="M0 0 C3.125 0.375 3.125 0.375 6 1 C6 2.98 6 4.96 6 7 C3.6875 8.125 3.6875 8.125 1 9 C0.01 8.34 -0.98 7.68 -2 7 C-2.3125 4.5 -2.3125 4.5 -2 2 C-1.34 1.34 -0.68 0.68 0 0 Z " fill="#FFFFFF" transform="translate(110,160)"/>
<path d="M0 0 C4.55555556 0.55555556 4.55555556 0.55555556 6 2 C6.04063832 3.66617115 6.042721 5.33388095 6 7 C3.6875 8.125 3.6875 8.125 1 9 C0.01 8.34 -0.98 7.68 -2 7 C-2.3125 4.5 -2.3125 4.5 -2 2 C-1.34 1.34 -0.68 0.68 0 0 Z " fill="#FFFFFF" transform="translate(532,160)"/>
<path d="M0 0 C1.99954746 -0.04254356 4.00041636 -0.04080783 6 0 C7 1 7 1 7.125 4 C7 7 7 7 6 8 C3.5625 8.1875 3.5625 8.1875 1 8 C0.34 7.34 -0.32 6.68 -1 6 C-0.625 2.875 -0.625 2.875 0 0 Z " fill="#FFFFFF" transform="translate(447,171)"/>
<path d="M0 0 C1.4540625 0.0309375 1.4540625 0.0309375 2.9375 0.0625 C3.5625 2.9375 3.5625 2.9375 3.9375 6.0625 C3.2775 6.7225 2.6175 7.3825 1.9375 8.0625 C-1.1875 7.6875 -1.1875 7.6875 -4.0625 7.0625 C-4.10504356 5.06295254 -4.10330783 3.06208364 -4.0625 1.0625 C-3.0625 0.0625 -3.0625 0.0625 0 0 Z " fill="#FFFFFF" transform="translate(196.0625,170.9375)"/>
<path d="M0 0 C2.5625 0.1875 2.5625 0.1875 4.5625 2.1875 C4.1875 4.8125 4.1875 4.8125 3.5625 7.1875 C-1.1875 8.3125 -1.1875 8.3125 -3.4375 7.1875 C-3.48004356 5.18795254 -3.47830783 3.18708364 -3.4375 1.1875 C-2.4375 0.1875 -2.4375 0.1875 0 0 Z " fill="#FFFFFF" transform="translate(457.4375,344.8125)"/>
<path d="M0 0 C2.5 0.125 2.5 0.125 3.5 1.125 C3.54080783 3.12458364 3.54254356 5.12545254 3.5 7.125 C0.625 7.75 0.625 7.75 -2.5 8.125 C-3.16 7.465 -3.82 6.805 -4.5 6.125 C-3.77607362 0.18880368 -3.77607362 0.18880368 0 0 Z " fill="#FFFFFF" transform="translate(188.5,344.875)"/>
</svg>
